<svg width="500" height="500" viewBox="0 0 500 500" fill="none" xmlns="http://www.w3.org/2000/svg">
<rect width="500" height="500" rx="50" fill="white"/>
<path d="M184.269 400H89C83.4772 400 79 395.523 79 390V110C79 104.477 83.4772 100 89 100H131.634M184.269 400H141.634C136.111 400 131.634 395.523 131.634 390V206.657C131.634 196.886 144.207 192.915 149.82 200.913L286.551 395.744C288.423 398.412 291.477 400 294.736 400H342.172M184.269 400V250M131.634 100L342.172 400M131.634 100H179.216C182.393 100 185.381 101.51 187.266 104.068L350.438 325.504C356.165 333.275 368.489 329.225 368.489 319.572V100M342.172 400H411.123C416.646 400 421.123 395.523 421.123 390V110C421.123 104.477 416.646 100 411.123 100H368.489M368.489 100H325.855C320.332 100 315.855 104.477 315.855 110V278.333" stroke="#E11D48" stroke-width="15" stroke-linecap="round" stroke-linejoin="round"/>
</svg>
