<svg width="55" height="22" viewBox="0 0 55 22" fill="none" xmlns="http://www.w3.org/2000/svg">
<path d="M12.3125 5.07812C12.375 5.07812 12.4271 5.10417 12.4688 5.15625C12.5208 5.19792 12.5469 5.26042 12.5469 5.34375C12.5469 5.42708 12.5312 5.50521 12.5 5.57812C12.1771 6.50521 11.8802 7.32292 11.6094 8.03125C11.3385 8.72917 11.0625 9.3125 10.7812 9.78125C10.5104 10.25 10.2292 10.6042 9.9375 10.8438C9.64583 11.0833 9.32292 11.2031 8.96875 11.2031C8.53125 11.2031 8.17708 11.1042 7.90625 10.9062C7.63542 10.6979 7.42188 10.4323 7.26562 10.1094C7.10938 9.78646 7.00521 9.42708 6.95312 9.03125C6.90104 8.625 6.875 8.22396 6.875 7.82812C6.875 7.54688 6.88021 7.27083 6.89062 7C6.90104 6.71875 6.91146 6.45312 6.92188 6.20312C6.94271 5.95312 6.95833 5.72917 6.96875 5.53125C6.97917 5.33333 6.98438 5.17188 6.98438 5.04688C6.98438 4.84896 6.94792 4.70833 6.875 4.625C6.8125 4.53125 6.73958 4.48438 6.65625 4.48438C6.5625 4.48438 6.48438 4.53125 6.42188 4.625C6.35938 4.70833 6.30729 4.80729 6.26562 4.92188C6.21354 5.04688 6.13542 5.27083 6.03125 5.59375C5.92708 5.91667 5.80729 6.28125 5.67188 6.6875C5.53646 7.09375 5.39062 7.52083 5.23438 7.96875C5.08854 8.40625 4.95312 8.80208 4.82812 9.15625C4.66146 9.61458 4.5 9.98958 4.34375 10.2812C4.19792 10.5625 4.05729 10.7812 3.92188 10.9375C3.78646 11.0938 3.65104 11.1979 3.51562 11.25C3.39062 11.3125 3.27083 11.3438 3.15625 11.3438C3.05208 11.3438 2.94271 11.3229 2.82812 11.2812C2.72396 11.2396 2.625 11.1719 2.53125 11.0781C2.44792 10.9844 2.375 10.8594 2.3125 10.7031C2.25 10.5365 2.21875 10.3281 2.21875 10.0781C2.19792 9.54688 2.18229 8.97396 2.17188 8.35938C2.17188 7.73438 2.17188 7.125 2.17188 6.53125C2.17188 6.25 2.17188 5.97917 2.17188 5.71875C2.18229 5.45833 2.1875 5.21875 2.1875 5C2.1875 4.69792 2.17188 4.48438 2.14062 4.35938C2.10938 4.22396 2.06771 4.15625 2.01562 4.15625C1.90104 4.15625 1.80208 4.27083 1.71875 4.5C1.64583 4.71875 1.51562 5.0625 1.32812 5.53125C1.26562 5.6875 1.19792 5.79688 1.125 5.85938C1.0625 5.92188 0.994792 5.95312 0.921875 5.95312C0.859375 5.95312 0.807292 5.93229 0.765625 5.89062C0.713542 5.83854 0.6875 5.75521 0.6875 5.64062C0.6875 5.57812 0.713542 5.46875 0.765625 5.3125C0.817708 5.14583 0.880208 4.96875 0.953125 4.78125C1.03646 4.58333 1.11458 4.38542 1.1875 4.1875C1.27083 3.97917 1.34375 3.80208 1.40625 3.65625C1.5 3.41667 1.60938 3.17188 1.73438 2.92188C1.86979 2.66146 2.01562 2.42708 2.17188 2.21875C2.33854 2 2.51562 1.82292 2.70312 1.6875C2.90104 1.54167 3.11458 1.46875 3.34375 1.46875C3.64583 1.46875 3.91146 1.63542 4.14062 1.96875C4.38021 2.30208 4.51042 2.80729 4.53125 3.48438C4.54167 4.02604 4.54688 4.54167 4.54688 5.03125C4.55729 5.51042 4.56771 5.93229 4.57812 6.29688C4.58854 6.65104 4.59375 6.9375 4.59375 7.15625C4.60417 7.36458 4.61458 7.46875 4.625 7.46875C4.64583 7.46875 4.69271 7.375 4.76562 7.1875C4.83854 7 4.93229 6.75521 5.04688 6.45312C5.16146 6.14062 5.29167 5.79167 5.4375 5.40625C5.58333 5.01042 5.73438 4.61458 5.89062 4.21875C6.05729 3.8125 6.22917 3.42708 6.40625 3.0625C6.58333 2.6875 6.76042 2.35938 6.9375 2.07812C7.125 1.77604 7.32292 1.54688 7.53125 1.39062C7.75 1.23438 7.99479 1.15625 8.26562 1.15625C8.64062 1.15625 8.91146 1.38021 9.07812 1.82812C9.24479 2.26562 9.32812 2.85938 9.32812 3.60938C9.32812 3.79688 9.32292 4.02604 9.3125 4.29688C9.30208 4.56771 9.28646 4.85417 9.26562 5.15625C9.25521 5.45833 9.24479 5.76042 9.23438 6.0625C9.22396 6.36458 9.21875 6.64062 9.21875 6.89062C9.21875 7.31771 9.23438 7.66667 9.26562 7.9375C9.30729 8.19792 9.35938 8.40104 9.42188 8.54688C9.48438 8.69271 9.55208 8.79167 9.625 8.84375C9.69792 8.89583 9.77083 8.92188 9.84375 8.92188C10.0521 8.92188 10.2396 8.82812 10.4062 8.64062C10.5833 8.45312 10.75 8.19792 10.9062 7.875C11.0625 7.55208 11.2188 7.1875 11.375 6.78125C11.5312 6.36458 11.7031 5.92708 11.8906 5.46875C11.9844 5.20833 12.125 5.07812 12.3125 5.07812ZM20.7344 5.5625C20.4219 6.5 20.1302 7.32292 19.8594 8.03125C19.5885 8.72917 19.3177 9.31771 19.0469 9.79688C18.776 10.2656 18.4844 10.6198 18.1719 10.8594C17.8698 11.099 17.5312 11.2188 17.1562 11.2188C16.8958 11.2188 16.6771 11.1354 16.5 10.9688C16.3333 10.8021 16.1927 10.6146 16.0781 10.4062C15.9635 10.1979 15.875 10 15.8125 9.8125C15.7604 9.61458 15.724 9.48438 15.7031 9.42188C15.6927 9.40104 15.6823 9.36979 15.6719 9.32812C15.6615 9.28646 15.6458 9.26562 15.625 9.26562C15.6042 9.26562 15.5833 9.28125 15.5625 9.3125C15.5521 9.34375 15.5365 9.375 15.5156 9.40625C15.4844 9.47917 15.401 9.61458 15.2656 9.8125C15.1302 10.0104 14.9583 10.2135 14.75 10.4219C14.5521 10.6302 14.3229 10.8177 14.0625 10.9844C13.8021 11.1406 13.5208 11.2188 13.2188 11.2188C12.9792 11.2188 12.7448 11.1406 12.5156 10.9844C12.2969 10.8281 12.1042 10.6198 11.9375 10.3594C11.7708 10.0885 11.6406 9.77083 11.5469 9.40625C11.4427 9.04167 11.3906 8.65104 11.3906 8.23438C11.3906 7.32812 11.5365 6.47917 11.8281 5.6875C12.1094 4.88542 12.5729 4.08333 13.2188 3.28125C13.5312 2.89583 13.8594 2.55208 14.2031 2.25C14.5573 1.94792 14.901 1.69792 15.2344 1.5C15.5677 1.29167 15.8854 1.13542 16.1875 1.03125C16.5 0.927083 16.7656 0.875 16.9844 0.875C17.1302 0.875 17.276 0.901042 17.4219 0.953125C17.5677 1.00521 17.6979 1.09375 17.8125 1.21875C17.9271 1.34375 18.0156 1.51042 18.0781 1.71875C18.151 1.91667 18.1875 2.16146 18.1875 2.45312C18.1875 2.76562 18.1354 3.10417 18.0312 3.46875C17.9375 3.83333 17.7917 4.17708 17.5938 4.5C17.4062 4.8125 17.1719 5.07292 16.8906 5.28125C16.6094 5.48958 16.2917 5.59375 15.9375 5.59375C15.7188 5.59375 15.6094 5.51042 15.6094 5.34375C15.6094 5.22917 15.6354 5.04167 15.6875 4.78125C15.75 4.52083 15.7812 4.27083 15.7812 4.03125C15.7812 3.9375 15.776 3.82812 15.7656 3.70312C15.7552 3.56771 15.7292 3.4375 15.6875 3.3125C15.6458 3.1875 15.5885 3.08333 15.5156 3C15.4427 2.91667 15.3438 2.875 15.2188 2.875C14.9375 2.875 14.6927 3.00521 14.4844 3.26562C14.276 3.52604 14.099 3.84375 13.9531 4.21875C13.8177 4.59375 13.7135 4.98438 13.6406 5.39062C13.5677 5.79688 13.5312 6.14583 13.5312 6.4375C13.5312 6.83333 13.5625 7.16667 13.625 7.4375C13.6875 7.69792 13.7708 7.91146 13.875 8.07812C13.9792 8.23438 14.099 8.34896 14.2344 8.42188C14.3698 8.48438 14.5104 8.51562 14.6562 8.51562C15 8.51562 15.3073 8.40104 15.5781 8.17188C15.849 7.93229 16.0833 7.67188 16.2812 7.39062C16.4792 7.09896 16.6406 6.83854 16.7656 6.60938C16.901 6.36979 17.0104 6.25 17.0938 6.25C17.1875 6.25 17.25 6.35938 17.2812 6.57812C17.3438 7.04688 17.4115 7.43229 17.4844 7.73438C17.5573 8.03646 17.6302 8.27604 17.7031 8.45312C17.776 8.61979 17.849 8.73958 17.9219 8.8125C18.0052 8.875 18.0885 8.90625 18.1719 8.90625C18.3281 8.90625 18.4844 8.81771 18.6406 8.64062C18.7969 8.45312 18.9531 8.20312 19.1094 7.89062C19.2656 7.57812 19.4271 7.21354 19.5938 6.79688C19.7604 6.38021 19.9375 5.9375 20.125 5.46875C20.2396 5.20833 20.375 5.07812 20.5312 5.07812C20.6875 5.07812 20.7656 5.17188 20.7656 5.35938C20.7656 5.43229 20.7552 5.5 20.7344 5.5625ZM31.0156 5.46875C30.8073 6.08333 30.5833 6.67188 30.3438 7.23438C30.1146 7.78646 29.849 8.31771 29.5469 8.82812C29.2552 9.32812 28.9167 9.8125 28.5312 10.2812C28.1458 10.7396 27.6979 11.1875 27.1875 11.625C27.1562 12.125 27.1146 12.6302 27.0625 13.1406C27.0104 13.651 26.9531 14.151 26.8906 14.6406C26.724 15.9115 26.5104 16.9427 26.25 17.7344C25.9896 18.5365 25.7135 19.1771 25.4219 19.6562C25.1302 20.1354 24.8333 20.4896 24.5312 20.7188C24.2396 20.9479 23.9792 21.1198 23.75 21.2344C23.2292 21.4948 22.7917 21.625 22.4375 21.625C21.9583 21.625 21.5885 21.3854 21.3281 20.9062C21.0677 20.4271 20.9375 19.8073 20.9375 19.0469C20.9375 18.3281 21.0573 17.651 21.2969 17.0156C21.5365 16.3802 21.8438 15.7812 22.2188 15.2188C22.6042 14.6562 23.0312 14.1302 23.5 13.6406C23.9792 13.1615 24.4583 12.7188 24.9375 12.3125C24.9688 11.9167 24.9896 11.5469 25 11.2031C25.0208 10.8594 25.0417 10.5677 25.0625 10.3281C25.0938 9.71354 25.1146 9.06771 25.125 8.39062C25.1354 7.70312 25.151 7.06771 25.1719 6.48438C24.9323 7.40104 24.6927 8.16146 24.4531 8.76562C24.2135 9.36979 23.9688 9.84896 23.7188 10.2031C23.4792 10.5573 23.2292 10.8073 22.9688 10.9531C22.7083 11.099 22.4323 11.1719 22.1406 11.1719C21.9323 11.1719 21.7188 11.1146 21.5 11C21.2812 10.875 21.0781 10.651 20.8906 10.3281C20.7135 9.99479 20.5677 9.53646 20.4531 8.95312C20.3385 8.35938 20.2812 7.59896 20.2812 6.67188C20.2812 6.29688 20.2917 5.91667 20.3125 5.53125C20.3438 5.13542 20.3854 4.75521 20.4375 4.39062C20.4896 4.01562 20.5469 3.66667 20.6094 3.34375C20.6719 3.01042 20.7448 2.71875 20.8281 2.46875C20.8698 2.34375 20.9219 2.25 20.9844 2.1875C21.0469 2.11458 21.099 2.05208 21.1406 2C21.1927 1.9375 21.2344 1.88542 21.2656 1.84375C21.3073 1.79167 21.3542 1.76562 21.4062 1.76562C21.4896 1.76562 21.5469 1.79688 21.5781 1.85938C21.6094 1.91146 21.6667 1.9375 21.75 1.9375C21.7812 1.9375 21.8385 1.91667 21.9219 1.875C22.0052 1.82292 22.0938 1.76562 22.1875 1.70312C22.2812 1.64062 22.375 1.58854 22.4688 1.54688C22.5625 1.49479 22.6406 1.46875 22.7031 1.46875C22.8177 1.46875 22.875 1.5625 22.875 1.75C22.875 1.82292 22.8646 1.90625 22.8438 2C22.8333 2.09375 22.8177 2.20312 22.7969 2.32812C22.6927 2.80729 22.625 3.3125 22.5938 3.84375C22.5729 4.36458 22.5625 4.96875 22.5625 5.65625C22.5625 6.125 22.5625 6.55729 22.5625 6.95312C22.5729 7.33854 22.599 7.67188 22.6406 7.95312C22.6823 8.23438 22.7448 8.45312 22.8281 8.60938C22.9219 8.76562 23.0469 8.84375 23.2031 8.84375C23.3906 8.84375 23.5625 8.70833 23.7188 8.4375C23.8854 8.16667 24.0417 7.82292 24.1875 7.40625C24.3333 6.97917 24.474 6.50521 24.6094 5.98438C24.7448 5.46354 24.8802 4.95312 25.0156 4.45312C25.151 3.94271 25.2812 3.47396 25.4062 3.04688C25.5417 2.60938 25.6823 2.26562 25.8281 2.01562C25.9427 1.82812 26.1198 1.66667 26.3594 1.53125C26.6094 1.39583 26.8281 1.32812 27.0156 1.32812C27.1198 1.32812 27.2083 1.34375 27.2812 1.375C27.3542 1.39583 27.4167 1.44792 27.4688 1.53125C27.5208 1.60417 27.5573 1.71875 27.5781 1.875C27.6094 2.02083 27.625 2.21875 27.625 2.46875C27.625 2.89583 27.6146 3.36458 27.5938 3.875C27.5833 4.375 27.5677 4.86458 27.5469 5.34375C27.526 5.8125 27.5052 6.23438 27.4844 6.60938C27.4635 6.98438 27.4479 7.25521 27.4375 7.42188C27.4167 7.66146 27.3906 8.05729 27.3594 8.60938C27.3385 9.15104 27.3073 9.77604 27.2656 10.4844C27.651 10.1615 27.9896 9.82292 28.2812 9.46875C28.5833 9.10417 28.8542 8.71875 29.0938 8.3125C29.3333 7.89583 29.5573 7.45312 29.7656 6.98438C29.974 6.51562 30.1771 6.01042 30.375 5.46875C30.4896 5.1875 30.6458 5.04688 30.8438 5.04688C30.9896 5.04688 31.0625 5.11979 31.0625 5.26562C31.0625 5.29688 31.0573 5.33333 31.0469 5.375C31.0365 5.41667 31.026 5.44792 31.0156 5.46875ZM24.6094 15.0625C24.6406 14.875 24.6719 14.6823 24.7031 14.4844C24.7344 14.2865 24.7604 14.0833 24.7812 13.875C24.4896 14.2188 24.2188 14.5833 23.9688 14.9688C23.7292 15.3542 23.5208 15.7708 23.3438 16.2188C23.1771 16.6771 23.0417 17.1667 22.9375 17.6875C22.8438 18.2188 22.7969 18.7969 22.7969 19.4219C22.7969 19.776 22.8229 20.026 22.875 20.1719C22.9375 20.3177 23 20.3906 23.0625 20.3906C23.1667 20.3906 23.276 20.2917 23.3906 20.0938C23.5052 19.8958 23.6094 19.6406 23.7031 19.3281C23.8073 19.0156 23.9062 18.6615 24 18.2656C24.0938 17.8802 24.1771 17.4896 24.25 17.0938C24.3333 16.6979 24.4062 16.3177 24.4688 15.9531C24.5312 15.599 24.5781 15.3021 24.6094 15.0625ZM39.2031 5.5625C38.8906 6.5 38.599 7.32292 38.3281 8.03125C38.0573 8.72917 37.7865 9.31771 37.5156 9.79688C37.2448 10.2656 36.9531 10.6198 36.6406 10.8594C36.3385 11.099 36 11.2188 35.625 11.2188C35.3646 11.2188 35.1458 11.1354 34.9688 10.9688C34.8021 10.8021 34.6615 10.6146 34.5469 10.4062C34.4323 10.1979 34.3438 10 34.2812 9.8125C34.2292 9.61458 34.1927 9.48438 34.1719 9.42188C34.1615 9.40104 34.151 9.36979 34.1406 9.32812C34.1302 9.28646 34.1146 9.26562 34.0938 9.26562C34.0729 9.26562 34.0521 9.28125 34.0312 9.3125C34.0208 9.34375 34.0052 9.375 33.9844 9.40625C33.9531 9.47917 33.8698 9.61458 33.7344 9.8125C33.599 10.0104 33.4271 10.2135 33.2188 10.4219C33.0208 10.6302 32.7917 10.8177 32.5312 10.9844C32.2708 11.1406 31.9896 11.2188 31.6875 11.2188C31.4479 11.2188 31.2135 11.1406 30.9844 10.9844C30.7656 10.8281 30.5729 10.6198 30.4062 10.3594C30.2396 10.0885 30.1094 9.77083 30.0156 9.40625C29.9115 9.04167 29.8594 8.65104 29.8594 8.23438C29.8594 7.32812 30.0052 6.47917 30.2969 5.6875C30.5781 4.88542 31.0417 4.08333 31.6875 3.28125C32 2.89583 32.3281 2.55208 32.6719 2.25C33.026 1.94792 33.3698 1.69792 33.7031 1.5C34.0365 1.29167 34.3542 1.13542 34.6562 1.03125C34.9688 0.927083 35.2344 0.875 35.4531 0.875C35.599 0.875 35.7448 0.901042 35.8906 0.953125C36.0365 1.00521 36.1667 1.09375 36.2812 1.21875C36.3958 1.34375 36.4844 1.51042 36.5469 1.71875C36.6198 1.91667 36.6562 2.16146 36.6562 2.45312C36.6562 2.76562 36.6042 3.10417 36.5 3.46875C36.4062 3.83333 36.2604 4.17708 36.0625 4.5C35.875 4.8125 35.6406 5.07292 35.3594 5.28125C35.0781 5.48958 34.7604 5.59375 34.4062 5.59375C34.1875 5.59375 34.0781 5.51042 34.0781 5.34375C34.0781 5.22917 34.1042 5.04167 34.1562 4.78125C34.2188 4.52083 34.25 4.27083 34.25 4.03125C34.25 3.9375 34.2448 3.82812 34.2344 3.70312C34.224 3.56771 34.1979 3.4375 34.1562 3.3125C34.1146 3.1875 34.0573 3.08333 33.9844 3C33.9115 2.91667 33.8125 2.875 33.6875 2.875C33.4062 2.875 33.1615 3.00521 32.9531 3.26562C32.7448 3.52604 32.5677 3.84375 32.4219 4.21875C32.2865 4.59375 32.1823 4.98438 32.1094 5.39062C32.0365 5.79688 32 6.14583 32 6.4375C32 6.83333 32.0312 7.16667 32.0938 7.4375C32.1562 7.69792 32.2396 7.91146 32.3438 8.07812C32.4479 8.23438 32.5677 8.34896 32.7031 8.42188C32.8385 8.48438 32.9792 8.51562 33.125 8.51562C33.4688 8.51562 33.776 8.40104 34.0469 8.17188C34.3177 7.93229 34.5521 7.67188 34.75 7.39062C34.9479 7.09896 35.1094 6.83854 35.2344 6.60938C35.3698 6.36979 35.4792 6.25 35.5625 6.25C35.6562 6.25 35.7188 6.35938 35.75 6.57812C35.8125 7.04688 35.8802 7.43229 35.9531 7.73438C36.026 8.03646 36.099 8.27604 36.1719 8.45312C36.2448 8.61979 36.3177 8.73958 36.3906 8.8125C36.474 8.875 36.5573 8.90625 36.6406 8.90625C36.7969 8.90625 36.9531 8.81771 37.1094 8.64062C37.2656 8.45312 37.4219 8.20312 37.5781 7.89062C37.7344 7.57812 37.8958 7.21354 38.0625 6.79688C38.2292 6.38021 38.4062 5.9375 38.5938 5.46875C38.7083 5.20833 38.8438 5.07812 39 5.07812C39.1562 5.07812 39.2344 5.17188 39.2344 5.35938C39.2344 5.43229 39.224 5.5 39.2031 5.5625ZM50.2188 5.07812C50.2812 5.07812 50.3333 5.10417 50.375 5.15625C50.4271 5.19792 50.4531 5.26042 50.4531 5.34375C50.4531 5.42708 50.4375 5.50521 50.4062 5.57812C50.0833 6.50521 49.7865 7.32292 49.5156 8.03125C49.2448 8.72917 48.9688 9.3125 48.6875 9.78125C48.4167 10.25 48.1354 10.6042 47.8438 10.8438C47.5521 11.0833 47.2292 11.2031 46.875 11.2031C46.4375 11.2031 46.0833 11.1042 45.8125 10.9062C45.5417 10.6979 45.3281 10.4323 45.1719 10.1094C45.0156 9.78646 44.9115 9.42708 44.8594 9.03125C44.8073 8.625 44.7812 8.22396 44.7812 7.82812C44.7812 7.54688 44.7865 7.27083 44.7969 7C44.8073 6.71875 44.8177 6.45312 44.8281 6.20312C44.849 5.95312 44.8646 5.72917 44.875 5.53125C44.8854 5.33333 44.8906 5.17188 44.8906 5.04688C44.8906 4.84896 44.8542 4.70833 44.7812 4.625C44.7188 4.53125 44.6458 4.48438 44.5625 4.48438C44.4688 4.48438 44.3906 4.53125 44.3281 4.625C44.2656 4.70833 44.2135 4.80729 44.1719 4.92188C44.1198 5.04688 44.0417 5.27083 43.9375 5.59375C43.8333 5.91667 43.7135 6.28125 43.5781 6.6875C43.4427 7.09375 43.2969 7.52083 43.1406 7.96875C42.9948 8.40625 42.8594 8.80208 42.7344 9.15625C42.5677 9.61458 42.4062 9.98958 42.25 10.2812C42.1042 10.5625 41.9635 10.7812 41.8281 10.9375C41.6927 11.0938 41.5573 11.1979 41.4219 11.25C41.2969 11.3125 41.1771 11.3438 41.0625 11.3438C40.9583 11.3438 40.849 11.3229 40.7344 11.2812C40.6302 11.2396 40.5312 11.1719 40.4375 11.0781C40.3542 10.9844 40.2812 10.8594 40.2188 10.7031C40.1562 10.5365 40.125 10.3281 40.125 10.0781C40.1042 9.54688 40.0885 8.97396 40.0781 8.35938C40.0781 7.73438 40.0781 7.125 40.0781 6.53125C40.0781 6.25 40.0781 5.97917 40.0781 5.71875C40.0885 5.45833 40.0938 5.21875 40.0938 5C40.0938 4.69792 40.0781 4.48438 40.0469 4.35938C40.0156 4.22396 39.974 4.15625 39.9219 4.15625C39.8073 4.15625 39.7083 4.27083 39.625 4.5C39.5521 4.71875 39.4219 5.0625 39.2344 5.53125C39.1719 5.6875 39.1042 5.79688 39.0312 5.85938C38.9688 5.92188 38.901 5.95312 38.8281 5.95312C38.7656 5.95312 38.7135 5.93229 38.6719 5.89062C38.6198 5.83854 38.5938 5.75521 38.5938 5.64062C38.5938 5.57812 38.6198 5.46875 38.6719 5.3125C38.724 5.14583 38.7865 4.96875 38.8594 4.78125C38.9427 4.58333 39.0208 4.38542 39.0938 4.1875C39.1771 3.97917 39.25 3.80208 39.3125 3.65625C39.4062 3.41667 39.5156 3.17188 39.6406 2.92188C39.776 2.66146 39.9219 2.42708 40.0781 2.21875C40.2448 2 40.4219 1.82292 40.6094 1.6875C40.8073 1.54167 41.0208 1.46875 41.25 1.46875C41.5521 1.46875 41.8177 1.63542 42.0469 1.96875C42.2865 2.30208 42.4167 2.80729 42.4375 3.48438C42.4479 4.02604 42.4531 4.54167 42.4531 5.03125C42.4635 5.51042 42.474 5.93229 42.4844 6.29688C42.4948 6.65104 42.5 6.9375 42.5 7.15625C42.5104 7.36458 42.5208 7.46875 42.5312 7.46875C42.5521 7.46875 42.599 7.375 42.6719 7.1875C42.7448 7 42.8385 6.75521 42.9531 6.45312C43.0677 6.14062 43.1979 5.79167 43.3438 5.40625C43.4896 5.01042 43.6406 4.61458 43.7969 4.21875C43.9635 3.8125 44.1354 3.42708 44.3125 3.0625C44.4896 2.6875 44.6667 2.35938 44.8438 2.07812C45.0312 1.77604 45.2292 1.54688 45.4375 1.39062C45.6562 1.23438 45.901 1.15625 46.1719 1.15625C46.5469 1.15625 46.8177 1.38021 46.9844 1.82812C47.151 2.26562 47.2344 2.85938 47.2344 3.60938C47.2344 3.79688 47.2292 4.02604 47.2188 4.29688C47.2083 4.56771 47.1927 4.85417 47.1719 5.15625C47.1615 5.45833 47.151 5.76042 47.1406 6.0625C47.1302 6.36458 47.125 6.64062 47.125 6.89062C47.125 7.31771 47.1406 7.66667 47.1719 7.9375C47.2135 8.19792 47.2656 8.40104 47.3281 8.54688C47.3906 8.69271 47.4583 8.79167 47.5312 8.84375C47.6042 8.89583 47.6771 8.92188 47.75 8.92188C47.9583 8.92188 48.1458 8.82812 48.3125 8.64062C48.4896 8.45312 48.6562 8.19792 48.8125 7.875C48.9688 7.55208 49.125 7.1875 49.2812 6.78125C49.4375 6.36458 49.6094 5.92708 49.7969 5.46875C49.8906 5.20833 50.0312 5.07812 50.2188 5.07812ZM54.1719 9.14062C54.1927 9.18229 54.2031 9.23958 54.2031 9.3125C54.2031 9.39583 54.1771 9.47396 54.125 9.54688C54.0833 9.61979 54 9.69792 53.875 9.78125C53.7917 9.84375 53.6771 9.93229 53.5312 10.0469C53.3854 10.151 53.2396 10.2604 53.0938 10.375C52.9583 10.4792 52.8333 10.5781 52.7188 10.6719C52.6146 10.7552 52.5521 10.8021 52.5312 10.8125C52.4896 10.8438 52.4375 10.8802 52.375 10.9219C52.3125 10.9531 52.2448 10.9688 52.1719 10.9688C52.0781 10.9688 51.9844 10.9167 51.8906 10.8125C51.8385 10.75 51.7708 10.6458 51.6875 10.5C51.6042 10.3438 51.5156 10.1875 51.4219 10.0312C51.3281 9.86458 51.2396 9.70833 51.1562 9.5625C51.0833 9.40625 51.0312 9.29688 51 9.23438C50.9688 9.17188 50.9375 9.11458 50.9062 9.0625C50.8854 9.01042 50.875 8.96354 50.875 8.92188C50.875 8.82812 50.9271 8.72917 51.0312 8.625L52.5312 7.1875C52.5625 7.15625 52.6042 7.125 52.6562 7.09375C52.7188 7.0625 52.776 7.04688 52.8281 7.04688C52.9219 7.04688 52.9948 7.09375 53.0469 7.1875C53.0781 7.26042 53.151 7.39583 53.2656 7.59375C53.3802 7.78125 53.5 7.97917 53.625 8.1875C53.75 8.39583 53.8646 8.59375 53.9688 8.78125C54.0833 8.96875 54.151 9.08854 54.1719 9.14062Z" fill="white"/>
</svg>
